# xmcd
#
# Track frame offsets:
#	150
#	15787
#	31851
#	47092
#
# Disc length: 822 seconds
#
# Revision: 0
# Processed by: cddbd v1.5.2PL0 Copyright (c) Steve Scherf et al.
# Submitted via: audiograbber 1.83.01
#
DISCID=1e033404
DTITLE=Yendis - Northern Stomp
DYEAR=1900
DGENRE=Country
TTITLE0=Northern Stomp
TTITLE1=Last Dance With A Cowboy
TTITLE2=Wanna Get High
TTITLE3=Last Dance With A Cowboy (Radio Edition)
EXTD=
EXTT0=
EXTT1=
EXTT2=
EXTT3=
PLAYORDER=
